<svg width="11" height="11" viewBox="0 0 11 11" fill="none" xmlns="http://www.w3.org/2000/svg">
<path fill-rule="evenodd" clip-rule="evenodd" d="M0.250566 10.2792C0.0877542 10.1164 -0.00236097 9.89421 4.53003e-05 9.66155C0.00245189 9.42889 0.097183 9.20481 0.263398 9.03859L7.52452 1.77747L2.19862 1.8338C2.08327 1.83499 1.96929 1.81346 1.86318 1.77042C1.75708 1.72738 1.66092 1.66368 1.5802 1.58296C1.49948 1.50225 1.43578 1.40609 1.39274 1.29998C1.34971 1.19387 1.32817 1.07989 1.32936 0.964542C1.33055 0.849196 1.35445 0.734745 1.3997 0.627723C1.44494 0.520701 1.51064 0.423204 1.59305 0.340799C1.67545 0.258393 1.77295 0.192693 1.87997 0.147449C1.98699 0.102206 2.10144 0.0783059 2.21679 0.0771123L9.66038 0.000118522C9.77577 -0.00122041 9.88982 0.0202178 9.99599 0.0632042C10.1022 0.10619 10.1984 0.16988 10.2791 0.250627C10.3599 0.331373 10.4236 0.427591 10.4666 0.533766C10.5095 0.639942 10.531 0.753989 10.5296 0.869377L10.4526 8.31297C10.4515 8.42831 10.4276 8.54276 10.3823 8.64979C10.3371 8.75681 10.2714 8.85431 10.189 8.93671C10.1066 9.01912 10.0091 9.08482 9.90204 9.13006C9.79501 9.1753 9.68056 9.1992 9.56522 9.2004C9.33226 9.20281 9.10981 9.11258 8.94679 8.94956C8.86608 8.86884 8.80238 8.77268 8.75934 8.66657C8.7163 8.56046 8.69476 8.44648 8.69596 8.33114L8.75229 3.00524L1.49116 10.2664C1.32495 10.4326 1.10086 10.5273 0.868208 10.5297C0.63555 10.5321 0.413378 10.442 0.250566 10.2792Z" fill="#FFDFF0"/>
</svg>
