<svg width="48" height="48" viewBox="0 0 48 48" fill="none" xmlns="http://www.w3.org/2000/svg">
<path d="M24 0C37.2548 0 48 10.7452 48 24C48 37.2548 37.2548 48 24 48C10.7452 48 0 37.2548 0 24C0 10.7452 10.7452 0 24 0ZM11.5215 36.2197H16.9609V19.8779H11.5215V36.2197ZM30.3135 19.4941C27.4258 19.4941 26.133 21.0807 25.4111 22.1934V19.8779H19.9707C20.0422 21.4076 19.9711 36.1477 19.9707 36.2197H25.4111V27.0938C25.4111 26.6055 25.4461 26.1182 25.5898 25.7686C25.9829 24.7928 26.8782 23.7822 28.3809 23.7822C30.3495 23.7824 31.1367 25.2808 31.1367 27.4766V36.2197H36.5752V26.8496C36.5752 21.8304 33.8923 19.4943 30.3135 19.4941ZM14.2773 12C12.4169 12 11.2004 13.2202 11.2002 14.8223C11.2002 16.3913 12.3803 17.6473 14.2061 17.6475H14.2412C16.1377 17.6475 17.3184 16.3914 17.3184 14.8223C17.2829 13.2203 16.1376 12.0001 14.2773 12Z" fill="#F5F5F5"/>
</svg>
