<svg width="133" height="26" viewBox="0 0 133 26" fill="none" xmlns="http://www.w3.org/2000/svg">
<g clip-path="url(#clip0_5001_10)">
<g clip-path="url(#clip1_5001_10)">
<path d="M129.487 2.60641C127.503 1.18016 124.85 0.393387 122.016 0.393387C119.182 0.393387 116.645 1.15142 114.708 2.52738C112.472 4.11709 111.289 6.3894 111.289 9.0964C111.289 11.8034 112.5 14.1763 114.794 15.7912C116.765 17.1815 119.409 17.9467 122.236 17.9467C125.063 17.9467 127.616 17.2066 129.56 15.8612C131.811 14.3038 133 12.0818 133 9.4359C133 6.62112 131.786 4.259 129.487 2.60641ZM128.802 14.7439C127.079 15.9367 124.749 16.5923 122.236 16.5923C117.61 16.5923 112.63 14.2464 112.63 9.0964C112.63 3.94644 117.494 1.74779 122.016 1.74779C124.537 1.74779 126.976 2.46271 128.71 3.70933C130.639 5.09786 131.66 7.07737 131.66 9.4359C131.66 12.1878 130.106 13.8404 128.802 14.7439Z" fill="#D9D9D9"/>
<path d="M5.01213 20.7759C1.66952 20.7759 0 19.5777 0 17.1815C0 16.6372 0.144016 16.1432 0.430271 15.6978C0.718304 15.2523 1.07212 14.8769 1.49528 14.5679C1.91666 14.2589 2.48384 13.9823 3.19325 13.738C3.90267 13.4937 4.5623 13.2979 5.17392 13.1524C5.78377 13.0069 6.54297 12.8704 7.45151 12.7447C8.35828 12.6171 9.10504 12.5309 9.68821 12.486C10.2714 12.4411 11.0039 12.3818 11.884 12.3082C11.8662 11.3274 11.564 10.634 10.9808 10.2245C10.3958 9.81671 9.46774 9.61193 8.19115 9.61193C6.10736 9.61193 3.94178 10.1023 1.69619 11.0831V7.76176C4.31871 6.78098 6.84345 6.2906 9.27039 6.2906C13.7082 6.2906 15.9271 8.41381 15.9271 12.662V20.3412H11.9658L12.6663 15.7391H12.4245C11.9925 17.4635 11.1675 18.7335 9.94424 19.5508C8.72277 20.3681 7.07814 20.7759 5.01213 20.7759ZM6.7101 17.9162C8.09337 17.9162 9.28817 17.5982 10.2945 16.9623C11.3008 16.3265 11.8129 15.4373 11.8307 14.2931C9.06414 14.5104 7.31105 14.7008 6.57497 14.8643C5.01213 15.2092 4.22981 15.7534 4.22981 16.4989C4.22981 16.9354 4.45384 17.2803 4.90367 17.5336C5.35172 17.7886 5.95446 17.9144 6.7101 17.9144V17.9162Z" fill="#D9D9D9"/>
<path d="M22.8277 20.3394H18.7845V6.7253H23.2046L22.6659 11.789H22.9361C23.2953 9.81132 24.058 8.39944 25.2279 7.55519C26.3961 6.71093 28.2007 6.2888 30.6454 6.2888V9.74666C27.8434 9.74666 25.8396 10.2047 24.6359 11.1226C23.4322 12.0387 22.8294 13.5871 22.8294 15.766V20.3412L22.8277 20.3394Z" fill="#D9D9D9"/>
<path d="M34.2441 4.5464C32.6084 4.5464 31.7923 3.79376 31.7923 2.28667C31.7923 0.779589 32.6102 0 34.2441 0C35.8781 0 36.7511 0.761626 36.7511 2.28667C36.7511 3.81172 35.9154 4.5464 34.2441 4.5464ZM36.3208 20.3394H32.2777V6.7253H36.3208V20.3394Z" fill="#D9D9D9"/>
<path d="M44.0441 20.6124C42.355 20.6124 41.258 20.2585 40.7566 19.5508C40.2534 18.8431 40.0027 17.4725 40.0027 15.4391V9.69457H38.1163V6.72711H40.2463V3.45966L44.0743 2.91538V6.72711H47.7671V9.69457H44.0743V14.6236C44.0743 16.0391 44.1863 16.9426 44.4103 17.3324C44.6343 17.7222 45.3046 17.918 46.4177 17.918C46.6328 17.918 47.0826 17.9 47.7654 17.8641V20.0699C46.6684 20.4328 45.4291 20.6142 44.0458 20.6142L44.0441 20.6124Z" fill="#D9D9D9"/>
<path d="M54.0701 20.3394H50.027V6.7253H54.447L53.9083 12.3351H54.1501C54.7973 8.30603 56.5042 6.2906 59.9428 6.2906C61.6496 6.2906 62.9387 6.80433 63.8099 7.72044C64.6811 8.63655 65.2163 10.176 65.4136 12.3351H65.6021C66.2493 8.30603 67.789 6.2906 71.5619 6.2906C73.5194 6.32652 74.94 6.95343 75.8201 8.16951C76.7002 9.3856 77.1412 11.4729 77.1412 14.4314V20.3394H73.098V14.893C73.098 12.468 72.1539 9.36584 69.487 9.36584C66.676 9.36584 65.5221 14.3308 65.5221 16.472V20.3376H61.4789V14.8912C61.4789 12.8758 60.6255 9.36404 57.8679 9.36404C54.872 9.36404 54.0701 14.329 54.0701 16.4702V20.3358V20.3394Z" fill="#D9D9D9"/>
<path d="M81.702 4.5464C80.0663 4.5464 79.2502 3.79376 79.2502 2.28667C79.2502 0.779589 80.0681 0 81.702 0C83.336 0 84.209 0.761626 84.209 2.28667C84.209 3.81172 83.3733 4.5464 81.702 4.5464ZM83.7769 20.3394H79.7338V6.7253H83.7769V20.3394Z" fill="#D9D9D9"/>
<path d="M84.1589 25.7857V23.3086C85.0212 23.3086 85.6808 23.0949 86.1395 22.6692C86.5983 22.2416 86.8276 21.6758 86.8276 20.9681V6.7253H90.8707V20.6124C90.8707 22.1913 90.2413 23.4487 88.9843 24.3828C87.7273 25.3169 86.1182 25.7857 84.1607 25.7857H84.1589ZM88.8225 4.5464C87.1868 4.5464 86.3707 3.79376 86.3707 2.28667C86.3707 0.779589 87.1886 0 88.8225 0C90.4565 0 91.3295 0.761626 91.3295 2.28667C91.3295 3.81172 90.4938 4.5464 88.8225 4.5464Z" fill="#D9D9D9"/>
<path d="M98.0398 20.7759C94.6972 20.7759 93.0277 19.5777 93.0277 17.1815C93.0277 16.6372 93.1717 16.1432 93.458 15.6978C93.746 15.2523 94.0998 14.8769 94.523 14.5679C94.9444 14.2589 95.5116 13.9823 96.221 13.738C96.9304 13.4937 97.59 13.2979 98.2016 13.1524C98.8115 13.0069 99.5707 12.8704 100.479 12.7447C101.386 12.6171 102.133 12.5309 102.716 12.486C103.299 12.4411 104.032 12.3818 104.912 12.3082C104.894 11.3274 104.592 10.634 104.009 10.2245C103.424 9.81671 102.495 9.61193 101.219 9.61193C99.1351 9.61193 96.9695 10.1023 94.7239 11.0831V7.76176C97.3464 6.78098 99.8712 6.2906 102.298 6.2906C106.736 6.2906 108.955 8.41381 108.955 12.662V20.3412H104.994L105.694 15.7391H105.452C105.02 17.4635 104.195 18.7335 102.972 19.5508C101.75 20.3681 100.106 20.7759 98.0398 20.7759ZM99.7378 17.9162C101.121 17.9162 102.316 17.5982 103.322 16.9623C104.329 16.3265 104.841 15.4373 104.858 14.2931C102.092 14.5104 100.339 14.7008 99.6027 14.8643C98.0398 15.2092 97.2575 15.7534 97.2575 16.4989C97.2575 16.9354 97.4816 17.2803 97.9314 17.5336C98.3794 17.7886 98.9822 17.9144 99.7378 17.9144V17.9162Z" fill="#D9D9D9"/>
<path d="M122.17 3.36086C119.404 4.15122 114.312 6.99295 114.312 10.4005C114.312 12.4124 115.901 13.5117 117.796 13.5117C120.853 13.5117 122.014 9.71073 122.014 9.71073H122.327C122.327 9.71073 123.488 13.5117 126.544 13.5117C128.439 13.5117 130.029 12.4124 130.029 10.4005C130.029 6.99115 124.937 4.15122 122.17 3.36086ZM125.419 10.6897C123.538 10.6897 122.497 7.70069 122.497 7.70069H121.84C121.84 7.70069 120.799 10.6897 118.918 10.6897C118.22 10.6897 117.628 10.3215 117.628 9.59577C117.628 8.0312 119.969 6.09481 122.168 5.18588C124.368 6.09481 126.709 8.0312 126.709 9.59577C126.709 10.3215 126.117 10.6897 125.419 10.6897Z" fill="#D9D9D9"/>
</g>
</g>
<defs>
<clipPath id="clip0_5001_10">
<rect width="133" height="25.7857" fill="white"/>
</clipPath>
<clipPath id="clip1_5001_10">
<rect width="133" height="25.7857" fill="white"/>
</clipPath>
</defs>
</svg>
