<svg width="204" height="165" viewBox="0 0 204 165" fill="none" xmlns="http://www.w3.org/2000/svg">
<path d="M170.757 20.7693C152.138 7.38391 127.246 0 100.652 0C74.0585 0 50.251 7.11417 32.0825 20.0276C11.0946 34.9471 0 56.2728 0 81.6782C0 107.084 11.3616 129.353 32.8834 144.509C51.3855 157.557 76.194 164.739 102.721 164.739C129.248 164.739 153.206 157.793 171.441 145.166C192.562 130.55 203.723 109.697 203.723 84.8644C203.723 58.4475 192.329 36.2789 170.757 20.7693ZM164.333 134.68C148.167 145.874 126.295 152.028 102.721 152.028C59.3102 152.028 12.5794 130.011 12.5794 81.6782C12.5794 33.3456 58.2258 12.7111 100.652 12.7111C124.31 12.7111 147.199 19.4207 163.466 31.1203C181.568 44.1517 191.144 62.7295 191.144 84.8644C191.144 110.691 176.563 126.201 164.333 134.68Z" fill="#F5F5F5"/>
<path d="M102.104 27.8501C76.1442 35.2677 28.3623 61.9375 28.3623 93.9175C28.3623 112.799 43.2775 123.116 61.0622 123.116C89.7413 123.116 100.636 87.444 100.636 87.444H103.572C103.572 87.444 114.466 123.116 143.145 123.116C160.93 123.116 175.845 112.799 175.845 93.9175C175.845 61.9206 128.064 35.2677 102.104 27.8501ZM132.585 96.6317C114.934 96.6317 105.174 68.5796 105.174 68.5796H99.0007C99.0007 68.5796 89.2408 96.6317 71.5896 96.6317C65.0329 96.6317 59.4773 93.1758 59.4773 86.365C59.4773 71.6815 81.4495 53.5083 102.087 44.9781C122.725 53.5083 144.697 71.6815 144.697 86.365C144.697 93.1758 139.141 96.6317 132.585 96.6317Z" fill="#F5F5F5"/>
</svg>
