<svg width="11" height="11" viewBox="0 0 11 11" fill="none" xmlns="http://www.w3.org/2000/svg">
<path fill-rule="evenodd" clip-rule="evenodd" d="M0.250871 10.2791C0.0880593 10.1163 -0.00205579 9.89415 0.000350476 9.66149C0.00275706 9.42883 0.0974882 9.20475 0.263703 9.03853L7.52483 1.77741L2.19892 1.83374C2.08358 1.83493 1.9696 1.8134 1.86349 1.77036C1.75738 1.72732 1.66122 1.66362 1.5805 1.5829C1.49979 1.50218 1.43609 1.40603 1.39305 1.29992C1.35001 1.19381 1.32847 1.07983 1.32967 0.964481C1.33086 0.849135 1.35476 0.734684 1.4 0.627661C1.44525 0.52064 1.51095 0.423143 1.59335 0.340738C1.67576 0.258332 1.77325 0.192631 1.88028 0.147388C1.9873 0.102145 2.10175 0.0782449 2.2171 0.0770513L9.66068 5.74864e-05C9.77607 -0.00128144 9.89012 0.0201568 9.9963 0.0631432C10.1025 0.106129 10.1987 0.169819 10.2794 0.250565C10.3602 0.331312 10.4239 0.42753 10.4669 0.533705C10.5098 0.639881 10.5313 0.753928 10.5299 0.869316L10.453 8.31291C10.4518 8.42825 10.4279 8.5427 10.3826 8.64972C10.3374 8.75675 10.2717 8.85424 10.1893 8.93665C10.1069 9.01906 10.0094 9.08475 9.90234 9.13C9.79532 9.17524 9.68087 9.19914 9.56552 9.20033C9.33257 9.20274 9.11012 9.11252 8.9471 8.9495C8.86638 8.86878 8.80268 8.77262 8.75965 8.66651C8.71661 8.5604 8.69507 8.44642 8.69626 8.33108L8.75259 3.00517L1.49147 10.2663C1.32525 10.4325 1.10117 10.5272 0.868513 10.5297C0.635855 10.5321 0.413683 10.4419 0.250871 10.2791Z" fill="#4050FF"/>
</svg>
